<svg xmlns="http://www.w3.org/2000/svg" xmlns:xlink="http://www.w3.org/1999/xlink" width="500" zoomAndPan="magnify" viewBox="0 0 375 374.999991" height="500" preserveAspectRatio="xMidYMid meet" version="1.0"><defs><clipPath id="056ec71323"><path d="M 93.367188 93.367188 L 280.867188 93.367188 L 280.867188 280.867188 L 93.367188 280.867188 Z M 93.367188 93.367188 " clip-rule="nonzero"/></clipPath><clipPath id="03a089cbf6"><path d="M 187.117188 93.367188 C 135.339844 93.367188 93.367188 135.339844 93.367188 187.117188 C 93.367188 238.894531 135.339844 280.867188 187.117188 280.867188 C 238.894531 280.867188 280.867188 238.894531 280.867188 187.117188 C 280.867188 135.339844 238.894531 93.367188 187.117188 93.367188 Z M 187.117188 93.367188 " clip-rule="nonzero"/></clipPath><clipPath id="06b4315a8a"><path d="M 138.710938 138.710938 L 236.210938 138.710938 L 236.210938 236.210938 L 138.710938 236.210938 Z M 138.710938 138.710938 " clip-rule="nonzero"/></clipPath><clipPath id="beb8f7d1d3"><path d="M 187.496094 138.710938 C 160.554688 138.710938 138.710938 160.554688 138.710938 187.496094 C 138.710938 214.441406 160.554688 236.28125 187.496094 236.28125 C 214.441406 236.28125 236.28125 214.441406 236.28125 187.496094 C 236.28125 160.554688 214.441406 138.710938 187.496094 138.710938 Z M 187.496094 138.710938 " clip-rule="nonzero"/></clipPath><clipPath id="05f98bc1c5"><path d="M 46.875 46.875 L 93.363281 46.875 L 93.363281 93.363281 L 46.875 93.363281 Z M 46.875 46.875 " clip-rule="nonzero"/></clipPath><clipPath id="f1bce1bf84"><path d="M 70.121094 46.875 C 57.28125 46.875 46.875 57.28125 46.875 70.117188 C 46.875 82.957031 57.28125 93.363281 70.121094 93.363281 C 82.957031 93.363281 93.363281 82.957031 93.363281 70.117188 C 93.363281 57.28125 82.957031 46.875 70.121094 46.875 Z M 70.121094 46.875 " clip-rule="nonzero"/></clipPath><clipPath id="7b101760a1"><path d="M 280.867188 46.492188 L 327.355469 46.492188 L 327.355469 92.980469 L 280.867188 92.980469 Z M 280.867188 46.492188 " clip-rule="nonzero"/></clipPath><clipPath id="60d65fe57d"><path d="M 304.113281 46.492188 C 291.273438 46.492188 280.867188 56.898438 280.867188 69.738281 C 280.867188 82.574219 291.273438 92.980469 304.113281 92.980469 C 316.949219 92.980469 327.355469 82.574219 327.355469 69.738281 C 327.355469 56.898438 316.949219 46.492188 304.113281 46.492188 Z M 304.113281 46.492188 " clip-rule="nonzero"/></clipPath><clipPath id="85d2dc3a00"><path d="M 46.875 280.863281 L 93.363281 280.863281 L 93.363281 327.351562 L 46.875 327.351562 Z M 46.875 280.863281 " clip-rule="nonzero"/></clipPath><clipPath id="5cd0b8b282"><path d="M 70.121094 280.863281 C 57.28125 280.863281 46.875 291.269531 46.875 304.109375 C 46.875 316.945312 57.28125 327.351562 70.121094 327.351562 C 82.957031 327.351562 93.363281 316.945312 93.363281 304.109375 C 93.363281 291.269531 82.957031 280.863281 70.121094 280.863281 Z M 70.121094 280.863281 " clip-rule="nonzero"/></clipPath><clipPath id="40d0ea36e8"><path d="M 280.867188 280.863281 L 327.355469 280.863281 L 327.355469 327.351562 L 280.867188 327.351562 Z M 280.867188 280.863281 " clip-rule="nonzero"/></clipPath><clipPath id="164ae8ac13"><path d="M 304.113281 280.863281 C 291.273438 280.863281 280.867188 291.269531 280.867188 304.109375 C 280.867188 316.945312 291.273438 327.351562 304.113281 327.351562 C 316.949219 327.351562 327.355469 316.945312 327.355469 304.109375 C 327.355469 291.269531 316.949219 280.863281 304.113281 280.863281 Z M 304.113281 280.863281 " clip-rule="nonzero"/></clipPath><clipPath id="aecb8df01b"><path d="M 164.253906 0 L 210.742188 0 L 210.742188 46.488281 L 164.253906 46.488281 Z M 164.253906 0 " clip-rule="nonzero"/></clipPath><clipPath id="5c417e476d"><path d="M 187.496094 0 C 174.660156 0 164.253906 10.40625 164.253906 23.242188 C 164.253906 36.082031 174.660156 46.488281 187.496094 46.488281 C 200.335938 46.488281 210.742188 36.082031 210.742188 23.242188 C 210.742188 10.40625 200.335938 0 187.496094 0 Z M 187.496094 0 " clip-rule="nonzero"/></clipPath><clipPath id="a0f91fe296"><path d="M 164.253906 328.507812 L 210.742188 328.507812 L 210.742188 374.996094 L 164.253906 374.996094 Z M 164.253906 328.507812 " clip-rule="nonzero"/></clipPath><clipPath id="c922d2492c"><path d="M 187.496094 328.507812 C 174.660156 328.507812 164.253906 338.914062 164.253906 351.75 C 164.253906 364.589844 174.660156 374.996094 187.496094 374.996094 C 200.335938 374.996094 210.742188 364.589844 210.742188 351.75 C 210.742188 338.914062 200.335938 328.507812 187.496094 328.507812 Z M 187.496094 328.507812 " clip-rule="nonzero"/></clipPath><clipPath id="352be7d451"><path d="M 328.507812 164.253906 L 374.996094 164.253906 L 374.996094 210.742188 L 328.507812 210.742188 Z M 328.507812 164.253906 " clip-rule="nonzero"/></clipPath><clipPath id="bdc1db45dc"><path d="M 351.75 164.253906 C 338.914062 164.253906 328.507812 174.660156 328.507812 187.496094 C 328.507812 200.335938 338.914062 210.742188 351.75 210.742188 C 364.589844 210.742188 374.996094 200.335938 374.996094 187.496094 C 374.996094 174.660156 364.589844 164.253906 351.75 164.253906 Z M 351.75 164.253906 " clip-rule="nonzero"/></clipPath><clipPath id="95669ea0ff"><path d="M 0.382812 163.871094 L 46.871094 163.871094 L 46.871094 210.359375 L 0.382812 210.359375 Z M 0.382812 163.871094 " clip-rule="nonzero"/></clipPath><clipPath id="3dd28dbf87"><path d="M 23.625 163.871094 C 10.789062 163.871094 0.382812 174.277344 0.382812 187.117188 C 0.382812 199.953125 10.789062 210.359375 23.625 210.359375 C 36.464844 210.359375 46.871094 199.953125 46.871094 187.117188 C 46.871094 174.277344 36.464844 163.871094 23.625 163.871094 Z M 23.625 163.871094 " clip-rule="nonzero"/></clipPath></defs><g clip-path="url(#056ec71323)"><g clip-path="url(#03a089cbf6)"><path stroke-linecap="butt" transform="matrix(0.75, 0, 0, 0.75, 93.367345, 93.36734)" fill="none" stroke-linejoin="miter" d="M 124.999791 -0.000203692 C 55.963332 -0.000203692 -0.000209692 55.963338 -0.000209692 124.999797 C -0.000209692 194.036255 55.963332 249.999797 124.999791 249.999797 C 194.036249 249.999797 249.999791 194.036255 249.999791 124.999797 C 249.999791 55.963338 194.036249 -0.000203692 124.999791 -0.000203692 Z M 124.999791 -0.000203692 " stroke="#ffffff" stroke-width="8" stroke-opacity="1" stroke-miterlimit="4"/></g></g><g clip-path="url(#06b4315a8a)"><g clip-path="url(#beb8f7d1d3)"><path stroke-linecap="butt" transform="matrix(0.75, 0, 0, 0.75, 138.711735, 138.71173)" fill="none" stroke-linejoin="miter" d="M 65.045816 -0.00105679 C 29.123939 -0.00105679 -0.00106279 29.123945 -0.00106279 65.045822 C -0.00106279 100.972908 29.123939 130.092702 65.045816 130.092702 C 100.972902 130.092702 130.092696 100.972908 130.092696 65.045822 C 130.092696 29.123945 100.972902 -0.00105679 65.045816 -0.00105679 Z M 65.045816 -0.00105679 " stroke="#ffffff" stroke-width="8" stroke-opacity="1" stroke-miterlimit="4"/></g></g><g clip-path="url(#05f98bc1c5)"><g clip-path="url(#f1bce1bf84)"><path stroke-linecap="butt" transform="matrix(0.75, 0, 0, 0.75, 46.875001, 46.874997)" fill="none" stroke-linejoin="miter" d="M 30.994792 0.00000410417 C 13.874999 0.00000410417 -0.00000189583 13.875005 -0.00000189583 30.989589 C -0.00000189583 48.109382 13.874999 61.984383 30.994792 61.984383 C 48.109376 61.984383 61.984377 48.109382 61.984377 30.989589 C 61.984377 13.875005 48.109376 0.00000410417 30.994792 0.00000410417 Z M 30.994792 0.00000410417 " stroke="#ffffff" stroke-width="8" stroke-opacity="1" stroke-miterlimit="4"/></g></g><g clip-path="url(#7b101760a1)"><g clip-path="url(#60d65fe57d)"><path stroke-linecap="butt" transform="matrix(0.75, 0, 0, 0.75, 280.86734, 46.492343)" fill="none" stroke-linejoin="miter" d="M 30.994591 -0.000207796 C 13.874798 -0.000207796 -0.000202875 13.874793 -0.000202875 30.994586 C -0.000202875 48.10917 13.874798 61.984171 30.994591 61.984171 C 48.109175 61.984171 61.984176 48.10917 61.984176 30.994586 C 61.984176 13.874793 48.109175 -0.000207796 30.994591 -0.000207796 Z M 30.994591 -0.000207796 " stroke="#ffffff" stroke-width="8" stroke-opacity="1" stroke-miterlimit="4"/></g></g><g clip-path="url(#85d2dc3a00)"><g clip-path="url(#5cd0b8b282)"><path stroke-linecap="butt" transform="matrix(0.75, 0, 0, 0.75, 46.875001, 280.863498)" fill="none" stroke-linejoin="miter" d="M 30.994792 -0.000288409 C 13.874999 -0.000288409 -0.00000189583 13.874713 -0.00000189583 30.994505 C -0.00000189583 48.10909 13.874999 61.984091 30.994792 61.984091 C 48.109376 61.984091 61.984377 48.10909 61.984377 30.994505 C 61.984377 13.874713 48.109376 -0.000288409 30.994792 -0.000288409 Z M 30.994792 -0.000288409 " stroke="#ffffff" stroke-width="8" stroke-opacity="1" stroke-miterlimit="4"/></g></g><g clip-path="url(#40d0ea36e8)"><g clip-path="url(#164ae8ac13)"><path stroke-linecap="butt" transform="matrix(0.75, 0, 0, 0.75, 280.86734, 280.863498)" fill="none" stroke-linejoin="miter" d="M 30.994591 -0.000288409 C 13.874798 -0.000288409 -0.000202875 13.874713 -0.000202875 30.994505 C -0.000202875 48.10909 13.874798 61.984091 30.994591 61.984091 C 48.109175 61.984091 61.984176 48.10909 61.984176 30.994505 C 61.984176 13.874713 48.109175 -0.000288409 30.994591 -0.000288409 Z M 30.994591 -0.000288409 " stroke="#ffffff" stroke-width="8" stroke-opacity="1" stroke-miterlimit="4"/></g></g><g clip-path="url(#aecb8df01b)"><g clip-path="url(#5c417e476d)"><path stroke-linecap="butt" transform="matrix(0.75, 0, 0, 0.75, 164.253817, 0)" fill="none" stroke-linejoin="miter" d="M 30.989704 0 C 13.87512 0 0.000119115 13.875001 0.000119115 30.989585 C 0.000119115 48.109378 13.87512 61.984379 30.989704 61.984379 C 48.109497 61.984379 61.984498 48.109378 61.984498 30.989585 C 61.984498 13.875001 48.109497 0 30.989704 0 Z M 30.989704 0 " stroke="#ffffff" stroke-width="8" stroke-opacity="1" stroke-miterlimit="4"/></g></g><g clip-path="url(#a0f91fe296)"><g clip-path="url(#c922d2492c)"><path stroke-linecap="butt" transform="matrix(0.75, 0, 0, 0.75, 164.253817, 328.507625)" fill="none" stroke-linejoin="miter" d="M 30.989704 0.000250229 C 13.87512 0.000250229 0.000119115 13.875251 0.000119115 30.989836 C 0.000119115 48.109628 13.87512 61.984629 30.989704 61.984629 C 48.109497 61.984629 61.984498 48.109628 61.984498 30.989836 C 61.984498 13.875251 48.109497 0.000250229 30.989704 0.000250229 Z M 30.989704 0.000250229 " stroke="#ffffff" stroke-width="8" stroke-opacity="1" stroke-miterlimit="4"/></g></g><g clip-path="url(#352be7d451)"><g clip-path="url(#bdc1db45dc)"><path stroke-linecap="butt" transform="matrix(0.75, 0, 0, 0.75, 328.507629, 164.253812)" fill="none" stroke-linejoin="miter" d="M 30.98983 0.000125115 C 13.875245 0.000125115 0.000244229 13.875126 0.000244229 30.98971 C 0.000244229 48.109503 13.875245 61.984504 30.98983 61.984504 C 48.109622 61.984504 61.984623 48.109503 61.984623 30.98971 C 61.984623 13.875126 48.109622 0.000125115 30.98983 0.000125115 Z M 30.98983 0.000125115 " stroke="#ffffff" stroke-width="8" stroke-opacity="1" stroke-miterlimit="4"/></g></g><g clip-path="url(#95669ea0ff)"><g clip-path="url(#3dd28dbf87)"><path stroke-linecap="butt" transform="matrix(0.75, 0, 0, 0.75, 0.382657, 163.871166)" fill="none" stroke-linejoin="miter" d="M 30.989792 -0.0000963855 C 13.875208 -0.0000963855 0.000206691 13.874905 0.000206691 30.994697 C 0.000206691 48.109282 13.875208 61.984283 30.989792 61.984283 C 48.109585 61.984283 61.984586 48.109282 61.984586 30.994697 C 61.984586 13.874905 48.109585 -0.0000963855 30.989792 -0.0000963855 Z M 30.989792 -0.0000963855 " stroke="#ffffff" stroke-width="8" stroke-opacity="1" stroke-miterlimit="4"/></g></g></svg>